<svg width="23" height="28" viewBox="0 0 23 28" fill="none" xmlns="http://www.w3.org/2000/svg">
<path fill-rule="evenodd" clip-rule="evenodd" d="M12.5654 0C12.98 0 13.5135 0.232089 13.8067 0.539156L19.0353 6.02125C19.3284 6.32863 19.5495 6.888 19.5495 7.32263V12.3365C19.5495 12.6097 19.3382 12.8318 19.0771 12.8318C18.816 12.8318 18.6047 12.6097 18.6047 12.3365V7.32263C18.6047 7.31154 18.6024 7.29803 18.6001 7.28451C18.5987 7.2764 18.5973 7.2683 18.5964 7.26072H14.4256C13.4328 7.26072 12.6248 6.41387 12.6248 5.37196V0.999289C12.6168 0.998405 12.6085 0.996803 12.6001 0.995212C12.5879 0.992884 12.5758 0.990578 12.5654 0.990578H5.78793H3.13016C1.92545 0.990578 0.944775 2.01849 0.944775 3.28191V21.5883C0.944775 22.8517 1.92516 23.88 3.13016 23.88H14.6179C14.879 23.88 15.0906 24.1018 15.0906 24.3753C15.0906 24.649 14.879 24.8709 14.6179 24.8709H3.13016C1.40411 24.8709 0 23.3981 0 21.5883V3.28191C0 1.47218 1.4044 0 3.13016 0H5.78793H12.5654ZM13.5696 5.37181C13.5696 5.8671 13.9535 6.2703 14.4259 6.2703H17.9371L13.5696 1.69136V5.37181Z" fill="#24DA6C"/>
<path d="M14.618 16.6123H4.93108C4.67055 16.6123 4.45898 16.8341 4.45898 17.1079C4.45898 17.3817 4.67055 17.6032 4.93108 17.6032H14.618C14.8791 17.6032 15.0907 17.3817 15.0907 17.1079C15.0907 16.8341 14.8791 16.6123 14.618 16.6123Z" fill="#24DA6C"/>
<path d="M14.618 12.3369H4.93108C4.67055 12.3369 4.45898 12.5584 4.45898 12.8322C4.45898 13.1054 4.67055 13.3269 4.93108 13.3269H14.618C14.8791 13.3269 15.0907 13.1054 15.0907 12.8322C15.0907 12.5584 14.8791 12.3369 14.618 12.3369Z" fill="#24DA6C"/>
<path d="M4.93108 9.05015H10.6312C10.8923 9.05015 11.1039 8.82802 11.1039 8.55486C11.1039 8.28108 10.8923 8.05957 10.6312 8.05957H4.93108C4.67055 8.05957 4.45898 8.28108 4.45898 8.55486C4.45898 8.82802 4.67055 9.05015 4.93108 9.05015Z" fill="#24DA6C"/>
<path d="M22.8614 20.3621C22.6768 20.1686 22.3777 20.1686 22.1934 20.3621L19.5493 23.1345V16.0962C19.5493 15.8224 19.3381 15.6006 19.0769 15.6006C18.8158 15.6006 18.6046 15.8224 18.6046 16.0962V23.1345L15.961 20.3621C15.7765 20.1686 15.4774 20.1686 15.2925 20.3621C15.1082 20.5557 15.1082 20.8693 15.2925 21.0628L18.7428 24.6804C18.8315 24.7737 18.9517 24.826 19.0769 24.826C19.2022 24.826 19.3223 24.7737 19.4111 24.6804L22.8614 21.0628C23.0456 20.8693 23.0456 20.5557 22.8614 20.3621Z" fill="#24DA6C"/>
<path d="M15.7657 27.0098C15.5048 27.0098 15.293 27.2313 15.293 27.5051C15.293 27.7788 15.5048 28.0003 15.7657 28.0003H22.3895C22.6506 28.0003 22.8619 27.7788 22.8619 27.5051C22.8619 27.2313 22.6506 27.0098 22.3895 27.0098H15.7657Z" fill="#24DA6C"/>
</svg>
