<svg width="16" height="15" viewBox="0 0 16 15" fill="none" xmlns="http://www.w3.org/2000/svg">
<path d="M9.49963 12.1868V9.37429C9.49963 9.24997 9.44696 9.13074 9.35319 9.04283C9.25942 8.95493 9.13224 8.90554 8.99963 8.90554H6.99963C6.86703 8.90554 6.73985 8.95493 6.64608 9.04283C6.55231 9.13074 6.49963 9.24997 6.49963 9.37429V12.1868C6.49963 12.3112 6.44696 12.4304 6.35321 12.5183C6.25945 12.6062 6.13229 12.6556 5.9997 12.6556L3.00006 12.656C2.9344 12.656 2.86937 12.6439 2.8087 12.6203C2.74803 12.5968 2.6929 12.5622 2.64647 12.5187C2.60003 12.4752 2.5632 12.4235 2.53807 12.3666C2.51293 12.3097 2.5 12.2488 2.5 12.1872V6.76962C2.5 6.70431 2.51456 6.63972 2.54273 6.58C2.57091 6.52028 2.61209 6.46673 2.66363 6.4228L7.66329 2.16099C7.75532 2.08254 7.87525 2.03907 7.99964 2.03906C8.12403 2.03906 8.24396 2.08252 8.336 2.16097L13.3363 6.42279C13.3879 6.46673 13.4291 6.52028 13.4573 6.58C13.4854 6.63973 13.5 6.70432 13.5 6.76964V12.1872C13.5 12.2488 13.4871 12.3097 13.4619 12.3666C13.4368 12.4235 13.4 12.4752 13.3535 12.5187C13.3071 12.5622 13.252 12.5968 13.1913 12.6203C13.1306 12.6439 13.0656 12.656 12.9999 12.656L9.99957 12.6556C9.86697 12.6556 9.73981 12.6062 9.64606 12.5183C9.5523 12.4304 9.49963 12.3112 9.49963 12.1868V12.1868Z" stroke="black" stroke-linecap="round" stroke-linejoin="round"/>
</svg>
