<svg width="61" height="61" viewBox="0 0 61 61" fill="none" xmlns="http://www.w3.org/2000/svg">
<path opacity="0.2" d="M49.5625 20.9688H11.4375C10.3847 20.9688 9.53125 21.8222 9.53125 22.875V49.5625C9.53125 50.6153 10.3847 51.4688 11.4375 51.4688H49.5625C50.6153 51.4688 51.4688 50.6153 51.4688 49.5625V22.875C51.4688 21.8222 50.6153 20.9688 49.5625 20.9688Z" fill="#10C557"/>
<path d="M49.5625 20.9688H11.4375C10.3847 20.9688 9.53125 21.8222 9.53125 22.875V49.5625C9.53125 50.6153 10.3847 51.4688 11.4375 51.4688H49.5625C50.6153 51.4688 51.4688 50.6153 51.4688 49.5625V22.875C51.4688 21.8222 50.6153 20.9688 49.5625 20.9688Z" stroke="#10C557" stroke-width="2" stroke-linecap="round" stroke-linejoin="round"/>
<path d="M21.9219 20.9688V12.3906C21.9219 10.1156 22.8256 7.93368 24.4344 6.32497C26.0431 4.71626 28.2249 3.8125 30.5 3.8125C32.7751 3.8125 34.9569 4.71626 36.5656 6.32497C38.1744 7.93368 39.0781 10.1156 39.0781 12.3906" stroke="#10C557" stroke-width="2" stroke-linecap="round" stroke-linejoin="round"/>
<path d="M30.5 39.0781C32.0792 39.0781 33.3594 37.7979 33.3594 36.2188C33.3594 34.6396 32.0792 33.3594 30.5 33.3594C28.9208 33.3594 27.6406 34.6396 27.6406 36.2188C27.6406 37.7979 28.9208 39.0781 30.5 39.0781Z" fill="#10C557"/>
</svg>
