<svg width="12" height="12" viewBox="0 0 12 12" fill="none" xmlns="http://www.w3.org/2000/svg">
<path fill-rule="evenodd" clip-rule="evenodd" d="M9.45592 11.3909C9.06126 11.7835 8.53819 11.9997 7.98273 12.0002C5.44635 11.9999 0 6.55344 0 4.01701C0 3.46111 0.216132 2.93788 0.608395 2.54372C1.08572 2.06635 1.54919 1.83447 2.02572 1.83447C2.64718 1.83447 3.15771 2.23983 3.61677 2.67773C4.08436 3.12335 4.3985 3.75339 4.3985 4.06208C4.3985 4.45704 4.22476 4.71892 4.07143 4.95L4.07142 4.95003C3.78489 5.38178 3.55853 5.72288 4.91756 7.08187C5.63649 7.80125 6.16035 8.15101 6.51914 8.15101C6.71394 8.15101 6.86194 8.05274 7.04927 7.92833L7.04988 7.92793C7.28079 7.77468 7.54255 7.60097 7.93713 7.60097C8.2458 7.60124 8.87566 7.91553 9.32179 8.38276C9.81978 8.90506 10.8555 9.99166 9.45592 11.3909ZM2.02579 2.25925C1.66766 2.25925 1.30233 2.45046 0.908996 2.84382C0.596865 3.15744 0.424867 3.57427 0.424734 4.0171C0.424867 5.05836 1.56832 6.87728 3.33804 8.65112C5.11043 10.4276 6.93374 11.5756 7.98267 11.5756C8.4252 11.5753 8.84186 11.4032 9.15586 11.0905C10.1775 10.0691 9.67199 9.36584 9.01453 8.67633C8.58466 8.22616 8.06267 8.02588 7.9368 8.02588C7.67027 8.02588 7.49134 8.14456 7.28401 8.2823L7.28386 8.2824C7.07683 8.41972 6.84193 8.57552 6.51921 8.57552C6.02882 8.57552 5.44229 8.20763 4.61723 7.38251C3.12778 5.89295 3.30498 5.33758 3.71751 4.71541C3.8551 4.50819 3.9739 4.32912 3.9739 4.0623C3.9739 3.93629 3.77391 3.41439 3.32378 2.98516C2.95565 2.63394 2.52138 2.25925 2.02579 2.25925Z" fill="black"/>
<path d="M4.32188 1.37507C6.08867 -0.0130219 8.65931 0.128054 10.2648 1.73389C11.8758 3.34506 12.0132 5.92109 10.6146 7.6892C10.5417 7.78108 10.5506 7.91482 10.6392 7.99202C10.7274 8.06896 10.8621 8.06003 10.9352 7.96842C12.4794 6.03216 12.3333 3.20198 10.5653 1.43374C8.80278 -0.328776 5.97854 -0.479052 4.04389 1.05371C3.95202 1.12652 3.94242 1.26106 4.01922 1.34973C4.09602 1.4384 4.22975 1.4476 4.32188 1.37507Z" fill="black"/>
<path d="M8.97139 6.3188C9.06513 6.38921 9.19912 6.37081 9.26179 6.27173C9.51912 5.86397 9.65392 5.39674 9.65392 4.90805C9.65392 4.8023 9.64739 4.69577 9.63459 4.59189C9.47686 3.31101 8.38353 2.34521 7.09128 2.34521C6.60568 2.34521 6.14115 2.47869 5.73515 2.73311C5.63569 2.79538 5.61689 2.92925 5.68702 3.02312C5.75715 3.11713 5.88969 3.1354 5.99009 3.07486C6.32155 2.87485 6.69808 2.76991 7.09128 2.76978C8.16953 2.76978 9.08166 3.57543 9.21299 4.64389C9.22379 4.7307 9.22926 4.81951 9.22926 4.90791C9.22926 5.30367 9.12326 5.68249 8.92086 6.01532C8.85993 6.11559 8.87779 6.24826 8.97139 6.3188Z" fill="black"/>
</svg>
