<svg id="SvgjsSvg1054" width="100%" height="100%" xmlns="http://www.w3.org/2000/svg" version="1.1" xlink="http://www.w3.org/1999/xlink" xmlns:svgjs="http://svgjs.com/svgjs" preserveAspectRatio="xMidYMid meet" viewBox="0.0000019457966118352488 0.0000011155516403960064 300.0000305175781 133.6263427734375" overflow="visible"><defs id="SvgjsDefs1055"></defs><g id="SvgjsG1056" transform="scale(2.735229759299781)" opacity="1"><g id="SvgjsG1057" class="qnMfmh9CJ" transform="translate(-3.1438502435545543, -3.157639535762937) scale(0.5515527665263065)" light-content="false" non-strokable="false" fill="#1a8e43"><path d="M48.9 6.1L35 20c-1.2 1.2-1.9 2.8-1.9 4.5 0 1.7.7 3.3 1.9 4.5l13.9 14c.3.3.7.4 1.1.4s.8-.2 1.1-.4L65 29.1c2.5-2.5 2.5-6.6 0-9.1L51.1 6.1c-.6-.5-1.6-.5-2.2 0zM43.5 50c0-.4-.2-.8-.4-1.1L29.1 35c-2.5-2.5-6.6-2.5-9.1 0L6.1 48.9c-.3.3-.4.7-.4 1.1s.2.8.4 1.1L20 65c1.2 1.2 2.8 1.9 4.5 1.9s3.3-.7 4.5-1.9l14-13.9c.3-.3.5-.7.5-1.1zM80 35c-2.5-2.5-6.6-2.5-9.1 0L57 48.9c-.3.3-.4.7-.4 1.1s.2.8.4 1.1L70.9 65c1.2 1.2 2.8 1.9 4.5 1.9 1.7 0 3.3-.7 4.5-1.9l13.9-13.9c.6-.6.6-1.5 0-2.1L80 35zM51.1 57c-.6-.6-1.5-.6-2.1 0L35 70.9c-2.5 2.5-2.5 6.6 0 9.1l13.9 13.9c.3.3.7.4 1.1.4s.8-.1 1.1-.4L65 80c2.5-2.5 2.5-6.6 0-9.1L51.1 57z"></path></g><g id="SvgjsG1058" class="text" transform="translate(85.26000007629395, 45.426894409937894) scale(1)" light-content="false" fill="#050505"><path d="M8.76 -8.16L12.06 0L24.42 0L5.82 -42L-5.88 -42L-24.42 0L-12.3 0L-9 -8.16ZM5.28 -16.92L-5.52 -16.92L-0.12 -30.36Z"></path></g></g></svg>